<svg width="87" height="92" viewBox="0 0 87 92" fill="none" xmlns="http://www.w3.org/2000/svg">
<path d="M8.70001 12.88V90.16H67.86V79.12H78.3V1.84H19.14V12.88H8.70001ZM64.38 86.48H12.18V16.56H19.14H52.2V29.44H64.38V79.12V86.48ZM55.68 19.1618L61.9197 25.76H55.68V19.1618ZM22.62 5.52H74.82V75.44H67.86V26.8382L54.6604 12.88H22.62V5.52Z" fill="black"/>
<path d="M57.42 36.8H19.14V40.48H57.42V36.8Z" fill="black"/>
<path d="M57.42 47.84H19.14V51.52H57.42V47.84Z" fill="black"/>
<path d="M57.42 58.88H19.14V62.56H57.42V58.88Z" fill="black"/>
<path d="M34.8 73.6H19.14V77.28H34.8V73.6Z" fill="black"/>
<path d="M57.42 73.6H41.76V77.28H57.42V73.6Z" fill="black"/>
<path d="M45.24 25.76H31.32V29.44H45.24V25.76Z" fill="black"/>
</svg>
