<svg width="82" height="76" viewBox="0 0 82 76" fill="none" xmlns="http://www.w3.org/2000/svg">
<path d="M71.75 32.0467H48.585L57.9467 23.1167C48.6192 14.5667 33.5175 14.25 24.19 22.8C14.8625 31.3817 14.8625 45.22 24.19 53.8017C33.5175 62.3833 48.6192 62.3833 57.9467 53.8017C62.5933 49.5583 64.9167 44.5867 64.9167 38.3167H71.75C71.75 44.5867 68.7433 52.725 62.73 58.235C50.7375 69.255 31.2625 69.255 19.27 58.235C7.31168 47.2467 7.20918 29.3867 19.2017 18.3983C31.1942 7.41 50.43 7.41 62.4225 18.3983L71.75 9.5V32.0467ZM42.7083 25.3333V38.7917L54.6667 45.3783L52.2067 49.21L37.5833 41.1667V25.3333H42.7083Z" fill="black"/>
</svg>
